# xmcd
#
# Track frame offsets:
#	180
#	17159
#	31721
#	43352
#	64362
#	81780
#	99833
#	112158
#	125929
#	139593
#	157885
#	173330
#	199461
#	215139
#
# Disc length: 3090
#
# Revision: 5
# Processed by: cddbd v1.5.1PL0 Copyright (c) Steve Scherf et al.
# Submitted via: CDex 1.30Release
# Normalized: r4:TRMNUM
#
DISCID=c80c100e
DTITLE=Old Chicago Blues Band - Third Anniversary
DYEAR=1900
DGENRE=Blues
TTITLE0=Downhome Blues
TTITLE1=Let Me Love You Baby
TTITLE2=Older Woman
TTITLE3=Let's Straighten It Out
TTITLE4=Boom Bapa Boom
TTITLE5=On Broadway
TTITLE6=Dark End Of The Street
TTITLE7=I Gotcha
TTITLE8=Mercury Blues
TTITLE9=You'll Lose A Good Thing
TTITLE10=I Ain't Drunk
TTITLE11=Mustang Sally
TTITLE12=Sweet Home Chicago
TTITLE13=Instrumental Blues
EXTD=ID3G:   0
EXTT0=
EXTT1=
EXTT2=
EXTT3=
EXTT4=
EXTT5=
EXTT6=
EXTT7=
EXTT8=
EXTT9=
EXTT10=
EXTT11=
EXTT12=
EXTT13=
PLAYORDER=
